<svg id="Layer_1" data-name="Layer 1" xmlns="http://www.w3.org/2000/svg" xmlns:xlink="http://www.w3.org/1999/xlink" viewBox="0 0 1178.5 839.64"><defs><style>.cls-1{fill:none;}.cls-2{fill:#e79d37;}.cls-3{fill:#0071bc;}.cls-4{fill:#fc98bc;}.cls-5{clip-path:url(#clip-path);}</style><clipPath id="clip-path" transform="translate(-156.63 -268.93)"><path class="cls-1" d="M396,767.59l.15-26.89,5.15-12.34,1-13.37,8.22-13.37,12.35-14,8.23-10.73,3.08-10.18,2.06-11.42,8.23-5.14,14.4-2.06,7.2-22.63,12.34-10.28,14.4-20.58,15.43-26.74h9.26l12.34-8.23,13.37-6.17,14.4-9.26L568.9,535l11.32-1,12.34-5.14L612.1,481.5l7.2-11.31L639.88,465l-1-18.51-9.26-11.31-5.14-13.38,1-23.65,13.37,1s-6.17-18.52,3.08-45.26,10.29-19.54,34-32.92,55.54,1,64.8,8.23,21.6,30.86,21.6,30.86V402.3l1,31.89-2,28.8-4.12,17.48L773.59,498v7.2l9,11.27h20l25,25h50l22.5,25,30,27.5,22.5,30,22.5,25,20,17.82,10,26.81s20,32.87,40,85.37,70,77.5,70,77.5-104.85,211.15-369.25,202.82c-269.51-8.49-356.23-283.61-352.84-286Z"/></clipPath></defs><title>backgroundimage3</title><circle class="cls-2" cx="217.53" cy="93.26" r="93.26"/><circle class="cls-3" cx="367.7" cy="582.51" r="257.14"/><path class="cls-4" d="M1150.13,693.56c0,202-170.58,365.69-381,365.69-193.79,0-353.8-138.88-377.87-318.6a355.5,355.5,0,0,1-3.13-47.09c0-202,170.58-365.7,381-365.7S1150.13,491.59,1150.13,693.56Z" transform="translate(-156.63 -268.93)"/><g class="cls-5"><image width="590" height="393" transform="translate(0 5.32) scale(2)" xlink:href="../Downloads/webdev2-removebg-preview.png"/></g></svg>